<?xml version="1.0" encoding="UTF-8" standalone="no"?>
<!DOCTYPE svg PUBLIC "-//W3C//DTD SVG 1.1//EN" "http://www.w3.org/Graphics/SVG/1.1/DTD/svg11.dtd">
<svg width="100%" height="100%" viewBox="0 0 417 370" version="1.1" xmlns="http://www.w3.org/2000/svg" xmlnsXlink="http://www.w3.org/1999/xlink" xmlSpace="preserve" xmlnsSerif="http://www.serif.com/" style="fill-rule:evenodd;clip-rule:evenodd;stroke-linejoin:round;stroke-miterlimit:2;">
    <g transform="matrix(1,0,0,1,-304.412,-211.419)">
        <g transform="matrix(1,0,0,0.999612,0,0.0820715)">
            <path d="M385.65,218.501C420.664,205.825 471.101,206.81 514.805,252.241C519.633,249.276 523.055,244.659 527.047,240.769C550.302,218.105 578.639,208.946 610.224,211.984C669.744,217.708 710.883,262.028 719.477,312.702C724.63,343.09 719.802,371.413 702.433,397.036C694.942,408.087 684.796,416.982 675.385,426.401C626.271,475.559 577.069,524.629 527.894,573.726C527.069,574.55 526.226,575.357 525.36,576.138C517.269,583.435 508.692,583.428 501.001,575.764C444.817,519.776 388.458,463.96 332.687,407.563C317.463,392.168 309.073,372.393 305.864,351.056C296.136,286.355 336.699,236.895 385.65,218.501M434.559,469.941C459.502,495.179 484.456,520.405 509.368,545.674C511.56,547.897 513.119,549.443 516.174,546.33C545.111,516.845 574.176,487.485 603.276,458.161C605.821,455.597 606.802,452.892 606.774,449.289C606.627,430.63 606.606,411.969 606.795,393.311C606.836,389.306 605.59,386.474 602.764,383.693C574.031,355.413 545.413,327.016 516.737,298.679C515.479,297.436 514.478,295.738 512.476,295.523C512.119,295.688 511.752,295.757 511.532,295.974C481.522,325.566 451.434,355.08 422.029,385.279C419.852,387.515 419.16,389.906 419.18,392.899C419.269,406.56 420.256,420.323 418.945,433.857C417.478,449.002 421.47,460.779 434.559,469.941M605.705,347.792C614,355.984 622.216,364.258 630.63,372.325C634.02,375.575 635.378,379.267 635.33,383.893C635.195,396.883 635.265,409.875 635.332,422.866C635.34,424.408 634.67,426.155 636.345,427.838C648.939,414.67 662.627,402.708 674.295,388.78C690.79,369.089 696.606,345.807 693.232,321.045C689.04,290.279 672.641,266.602 645.537,250.963C626.837,240.173 606.618,236.643 585.363,240.542C567.086,243.894 551.772,252.798 539.257,266.575C530.753,275.937 530.957,273.474 539.619,282.164C561.369,303.985 583.323,325.604 605.705,347.792M443.014,323.515C458.143,308.265 473.167,292.909 488.481,277.848C491.973,274.413 491.751,272.084 488.626,268.825C464.737,243.912 436.05,232.835 402.238,242.264C363.79,252.987 339.147,278.053 333.284,318.459C329.2,346.601 335.671,372.464 355.862,393.605C365.288,403.475 375.322,412.766 385.14,422.258C386.734,423.8 388.009,425.838 391.015,426.956C391.015,413.93 391.546,401.455 390.838,389.05C390.324,380.046 393.549,373.477 399.693,367.384C414.117,353.079 428.25,338.48 443.014,323.515Z" style="fill:rgb(0,199,199);fill-rule:nonzero;"/>
        </g>
        <path d="M543.561,446.958C536.8,446.939 530.492,446.934 524.185,446.867C519.788,446.82 517.535,444.922 517.717,440.137C517.976,433.341 517.918,426.524 517.727,419.723C517.604,415.383 519.606,413.717 523.695,413.747C530.998,413.801 538.303,413.804 545.606,413.744C549.381,413.712 551.122,415.662 551.156,419.229C551.225,426.533 551.239,433.837 551.175,441.14C551.133,445.86 547.729,446.645 543.561,446.958Z" style="fill:rgb(0,199,199);fill-rule:nonzero;"/>
        <path d="M522.273,403.346C518.697,403.367 517.817,401.419 517.806,398.775C517.775,391.113 517.821,383.45 517.739,375.789C517.707,372.893 519.14,371.235 521.834,371.176C529.987,370.996 538.149,370.943 546.303,371.081C549.459,371.134 551.112,373.355 551.16,376.389C551.276,383.715 551.249,391.046 551.187,398.373C551.157,401.879 549.181,403.395 545.734,403.372C538.072,403.319 530.41,403.355 522.273,403.346Z" style="fill:rgb(0,199,199);fill-rule:nonzero;"/>
        <path d="M508.323,439.754C508.821,445.007 506.354,446.915 501.877,446.863C494.737,446.781 487.593,447.304 480.455,446.517C477.001,446.137 475.513,444.501 475.579,440.988C475.713,433.842 475.776,426.688 475.574,419.545C475.455,415.318 477.666,413.847 481.322,413.804C488.636,413.716 495.951,413.814 503.266,413.75C506.781,413.72 508.422,415.191 508.355,418.836C508.23,425.65 508.322,432.468 508.323,439.754Z" style="fill:rgb(0,199,199);fill-rule:nonzero;"/>
        <path d="M475.603,384.034C475.6,370.949 475.6,370.941 488.179,370.926C493.009,370.921 497.839,370.947 502.67,370.98C506.553,371.006 508.414,372.855 508.346,376.864C508.222,384.191 508.243,391.522 508.311,398.85C508.34,401.976 507.071,403.409 503.859,403.374C496.032,403.287 488.201,403.285 480.374,403.38C476.928,403.422 475.578,401.822 475.625,398.519C475.691,393.856 475.618,389.192 475.603,384.034Z" style="fill:rgb(0,199,199);fill-rule:nonzero;"/>
    </g>
</svg>
